<?xml version="1.0" encoding="utf-8"?>
<!-- Generator: Adobe Illustrator 23.0.1, SVG Export Plug-In . SVG Version: 6.00 Build 0)  -->
<svg version="1.1" id="Layer_1" xmlns="http://www.w3.org/2000/svg" xmlns:xlink="http://www.w3.org/1999/xlink" x="0px" y="0px"
	 viewBox="230 340 365 150" style="enable-background:new 0 0 822 811;" xml:space="preserve">
<style type="text/css">
	.st0{fill:#FFFFFF;}
	.st1{fill:#03A2FE;}
</style>
<rect x="-810" y="670" class="st0" width="119" height="79"/>
<rect x="-970.9" y="607.13" transform="matrix(0.7071 -0.7071 0.7071 0.7071 -714.2522 -507.3071)" class="st1" width="2.79" height="2.79"/>
<g>
	<path d="M-1090.43,684.99l3.6,7.47l3.88-8.66l3.91,8.66l3.55-7.47h3.55l-7.19,14.06l-3.82-8.42l-3.86,8.42l-7.18-14.06H-1090.43z"
		/>
	<path d="M-1070.38,675.38h3.17v10.69c1.13-0.97,2.37-1.45,3.74-1.45c1.55,0,2.79,0.48,3.72,1.44c0.79,0.83,1.18,2.16,1.18,3.99
		v8.02h-3.17v-7.74c0-1.05-0.2-1.81-0.59-2.28s-1.02-0.71-1.88-0.71c-1.11,0-1.89,0.33-2.34,0.98c-0.44,0.66-0.66,1.8-0.66,3.41
		v6.33h-3.17V675.38z"/>
	<path d="M-1044.99,684.99h3.19v13.08h-3.19v-1.37c-1.31,1.16-2.71,1.75-4.22,1.75c-1.9,0-3.47-0.65-4.71-1.96
		c-1.23-1.33-1.85-3-1.85-5c0-1.96,0.62-3.59,1.85-4.9c1.23-1.31,2.77-1.96,4.63-1.96c1.6,0,3.03,0.63,4.3,1.88V684.99z
		 M-1052.52,691.49c0,1.25,0.35,2.27,1.06,3.06c0.72,0.8,1.64,1.2,2.74,1.2c1.18,0,2.12-0.39,2.85-1.16
		c0.72-0.8,1.09-1.81,1.09-3.03s-0.36-2.24-1.09-3.04c-0.72-0.78-1.66-1.17-2.82-1.17c-1.09,0-2,0.39-2.74,1.18
		C-1052.16,689.33-1052.52,690.31-1052.52,691.49z"/>
	<path d="M-1035.1,687.81v10.26h-3.17v-10.26h-1.35v-2.82h1.35v-4.79h3.17v4.79h2.47v2.82H-1035.1z"/>
	<path d="M-1027.04,676.43l2.82,1.05l-4.02,7.68l-2.14-0.85L-1027.04,676.43z"/>
	<path d="M-1017.61,687.22l-2.62,1.33c-0.41-0.81-0.93-1.21-1.54-1.21c-0.29,0-0.54,0.09-0.75,0.28c-0.21,0.18-0.31,0.42-0.31,0.71
		c0,0.5,0.61,1,1.83,1.49c1.68,0.69,2.82,1.33,3.4,1.91c0.58,0.58,0.87,1.37,0.87,2.35c0,1.26-0.49,2.32-1.47,3.17
		c-0.95,0.81-2.1,1.21-3.44,1.21c-2.3,0-3.93-1.07-4.89-3.21l2.71-1.2c0.38,0.63,0.66,1.03,0.86,1.2c0.39,0.34,0.85,0.51,1.38,0.51
		c1.07,0,1.61-0.47,1.61-1.4c0-0.54-0.41-1.04-1.24-1.5c-0.32-0.15-0.64-0.3-0.96-0.44c-0.32-0.14-0.64-0.29-0.97-0.44
		c-0.92-0.43-1.57-0.86-1.95-1.29c-0.48-0.55-0.72-1.25-0.72-2.11c0-1.14,0.41-2.08,1.23-2.82c0.84-0.74,1.85-1.11,3.05-1.11
		C-1019.78,684.62-1018.47,685.49-1017.61,687.22z"/>
</g>
<g>
	<path d="M-1091.12,706.03h2.87v1.09c1-0.94,2.12-1.41,3.38-1.41c1.44,0,2.56,0.43,3.36,1.29c0.69,0.73,1.04,1.93,1.04,3.59v7.22
		h-2.87v-6.58c0-1.16-0.17-1.96-0.51-2.41c-0.33-0.45-0.93-0.68-1.8-0.68c-0.95,0-1.62,0.3-2.02,0.9c-0.39,0.59-0.58,1.62-0.58,3.08
		v5.68h-2.87V706.03z"/>
	<path d="M-1066.12,712.56h-8.86c0.08,0.97,0.41,1.74,0.99,2.31c0.58,0.56,1.33,0.85,2.25,0.85c0.71,0,1.3-0.16,1.76-0.48
		c0.46-0.32,0.98-0.92,1.56-1.79l2.41,1.28c-0.37,0.6-0.77,1.12-1.18,1.55c-0.41,0.43-0.86,0.79-1.33,1.06
		c-0.47,0.28-0.99,0.48-1.54,0.61s-1.15,0.19-1.79,0.19c-1.85,0-3.33-0.56-4.44-1.69c-1.12-1.14-1.68-2.64-1.68-4.52
		c0-1.86,0.54-3.37,1.62-4.52c1.09-1.14,2.54-1.7,4.34-1.7c1.82,0,3.26,0.55,4.32,1.66c1.05,1.1,1.57,2.62,1.57,4.56
		L-1066.12,712.56z M-1069.05,710.33c-0.4-1.45-1.36-2.18-2.88-2.18c-0.35,0-0.67,0.05-0.98,0.15c-0.3,0.1-0.58,0.25-0.83,0.44
		s-0.46,0.42-0.64,0.68c-0.18,0.27-0.31,0.57-0.41,0.91H-1069.05z"/>
	<path d="M-1060.18,711.43l-4.44-5.4h3.4l2.75,3.43l2.81-3.43h3.5l-4.57,5.4l5.29,6.37h-3.4l-3.63-4.4l-3.72,4.4h-3.49
		L-1060.18,711.43z"/>
	<path d="M-1047.08,708.57v9.24h-2.86v-9.24h-1.22v-2.54h1.22v-4.32h2.86v4.32h2.22v2.54H-1047.08z"/>
	<path d="M-1036.38,709.09h2.87c0,1.23-0.34,2.21-1.03,2.96c-0.89,0.97-2.03,1.46-3.42,1.46c-1.22,0-2.24-0.4-3.06-1.21
		c-0.83-0.81-1.24-1.81-1.24-2.99c0-0.93,0.26-1.68,0.77-2.25c0.52-0.57,1.41-1.07,2.67-1.5c1.24-0.44,2.03-0.79,2.36-1.05
		c0.34-0.27,0.51-0.68,0.51-1.23s-0.18-1-0.53-1.32c-0.35-0.33-0.82-0.49-1.4-0.49s-1.05,0.16-1.4,0.48s-0.52,0.76-0.52,1.32
		c0,0.25,0.05,0.6,0.15,1.04h-2.96c-0.02-0.21-0.03-0.4-0.04-0.56s-0.02-0.31-0.02-0.44c0-1.27,0.45-2.33,1.36-3.18
		c0.9-0.85,2.03-1.27,3.4-1.27c1.38,0,2.53,0.43,3.45,1.28c0.92,0.85,1.38,1.92,1.38,3.2c0,1.31-0.46,2.37-1.38,3.18
		c-0.58,0.51-1.68,1-3.3,1.48c-1.1,0.32-1.65,0.83-1.65,1.52c0,0.19,0.04,0.38,0.12,0.55c0.08,0.17,0.19,0.32,0.32,0.45
		s0.29,0.23,0.48,0.3s0.37,0.11,0.58,0.11C-1036.97,710.95-1036.46,710.33-1036.38,709.09z M-1039.61,716.45
		c0-0.45,0.17-0.84,0.52-1.17c0.35-0.33,0.76-0.5,1.24-0.5s0.9,0.17,1.24,0.5c0.35,0.33,0.52,0.73,0.52,1.18
		c0,0.47-0.17,0.87-0.52,1.2c-0.34,0.32-0.75,0.48-1.23,0.48c-0.5,0-0.92-0.16-1.26-0.48
		C-1039.44,717.33-1039.61,716.92-1039.61,716.45z"/>
</g>
<text transform="matrix(1 0 0 1 -1103.9282 773.1088)"><tspan x="0" y="0" style="stroke:#FFFFFF;stroke-miterlimit:10; font-family:'Futura-Medium'; font-size:26px; letter-spacing:1;"> What’s next?</tspan><tspan x="177.81" y="0" style="font-family:'Futura-Medium'; font-size:26px; letter-spacing:1;"> </tspan></text>
<g>
	<path d="M-924.16,754.24c0.14,0.01,0.28,0.02,0.41,0.02c12.9,0,25.81,0,38.71,0c0.14,0,0.27,0,0.42,0c0,0.49,0,0.96,0,1.45
		c-0.15,0-0.28,0-0.42,0c-12.9,0-25.81,0-38.71,0c-0.14,0-0.28,0.01-0.42,0.02C-924.16,755.23-924.16,754.74-924.16,754.24z"/>
	<path d="M-924.16,772.3c0.11-0.01,0.22-0.02,0.33-0.02c12.95,0,25.91,0,38.86,0c0.11,0,0.22,0,0.35,0c0,0.48,0,0.94,0,1.44
		c-0.13,0-0.27,0-0.4,0c-12.91,0-25.81,0-38.72,0c-0.14,0-0.28,0.01-0.41,0.02C-924.16,773.27-924.16,772.79-924.16,772.3z"/>
	<path d="M-924.16,763.27c3.27,0,6.55,0,9.84,0c0,0.48,0,0.95,0,1.44c-3.28,0-6.56,0-9.84,0
		C-924.16,764.23-924.16,763.75-924.16,763.27z"/>
	<path d="M-908.33,764.7c0-0.48,0-0.94,0-1.41c3.28,0,6.54,0,9.83,0c0,0.46,0,0.93,0,1.41C-901.77,764.7-905.04,764.7-908.33,764.7z
		"/>
	<path d="M-892.52,764.7c0-0.44,0-0.86,0-1.29c0-0.04,0.01-0.08,0.01-0.13c2.63,0,5.24,0,7.88,0c0,0.46,0,0.93,0,1.41
		C-887.24,764.7-889.86,764.7-892.52,764.7z"/>
</g>
<g>
	<path d="M-1137.16,754.24c0.14,0.01,0.28,0.02,0.41,0.02c12.9,0,25.81,0,38.71,0c0.14,0,0.27,0,0.42,0c0,0.49,0,0.96,0,1.45
		c-0.15,0-0.28,0-0.42,0c-12.9,0-25.81,0-38.71,0c-0.14,0-0.28,0.01-0.42,0.02C-1137.16,755.23-1137.16,754.74-1137.16,754.24z"/>
	<path d="M-1137.16,772.3c0.11-0.01,0.22-0.02,0.33-0.02c12.95,0,25.91,0,38.86,0c0.11,0,0.22,0,0.35,0c0,0.48,0,0.94,0,1.44
		c-0.13,0-0.27,0-0.4,0c-12.91,0-25.81,0-38.72,0c-0.14,0-0.28,0.01-0.41,0.02C-1137.16,773.27-1137.16,772.79-1137.16,772.3z"/>
	<path d="M-1137.16,763.27c3.27,0,6.55,0,9.84,0c0,0.48,0,0.95,0,1.44c-3.28,0-6.56,0-9.84,0
		C-1137.16,764.23-1137.16,763.75-1137.16,763.27z"/>
	<path d="M-1121.33,764.7c0-0.48,0-0.94,0-1.41c3.28,0,6.54,0,9.83,0c0,0.46,0,0.93,0,1.41
		C-1114.77,764.7-1118.04,764.7-1121.33,764.7z"/>
	<path d="M-1105.52,764.7c0-0.44,0-0.86,0-1.29c0-0.04,0.01-0.08,0.01-0.13c2.63,0,5.24,0,7.88,0c0,0.46,0,0.93,0,1.41
		C-1100.24,764.7-1102.86,764.7-1105.52,764.7z"/>
</g>
<text transform="matrix(1 0 0 1 -1084.9282 595.1088)"><tspan x="0" y="0" style="stroke:#FFFFFF;stroke-miterlimit:10; font-family:'Futura-Medium'; font-size:26px; letter-spacing:1;"> What’s next?</tspan><tspan x="177.81" y="0" style="font-family:'Futura-Medium'; font-size:26px; letter-spacing:1;"> </tspan></text>
<g>
	<path d="M-1118.16,576.24c0.14,0.01,0.28,0.02,0.41,0.02c12.9,0,25.81,0,38.71,0c0.14,0,0.27,0,0.42,0c0,0.49,0,0.96,0,1.45
		c-0.15,0-0.28,0-0.42,0c-12.9,0-25.81,0-38.71,0c-0.14,0-0.28,0.01-0.42,0.02C-1118.16,577.23-1118.16,576.74-1118.16,576.24z"/>
	<path d="M-1118.16,594.3c0.11-0.01,0.22-0.02,0.33-0.02c12.95,0,25.91,0,38.86,0c0.11,0,0.22,0,0.35,0c0,0.48,0,0.94,0,1.44
		c-0.13,0-0.27,0-0.4,0c-12.91,0-25.81,0-38.72,0c-0.14,0-0.28,0.01-0.41,0.02C-1118.16,595.27-1118.16,594.79-1118.16,594.3z"/>
	<path d="M-1118.16,585.27c3.27,0,6.55,0,9.84,0c0,0.48,0,0.95,0,1.44c-3.28,0-6.56,0-9.84,0
		C-1118.16,586.23-1118.16,585.75-1118.16,585.27z"/>
	<path d="M-1102.33,586.7c0-0.48,0-0.94,0-1.41c3.28,0,6.54,0,9.83,0c0,0.46,0,0.93,0,1.41
		C-1095.77,586.7-1099.04,586.7-1102.33,586.7z"/>
	<path d="M-1086.52,586.7c0-0.44,0-0.86,0-1.29c0-0.04,0.01-0.08,0.01-0.13c2.63,0,5.24,0,7.88,0c0,0.46,0,0.93,0,1.41
		C-1081.24,586.7-1083.86,586.7-1086.52,586.7z"/>
</g>
<text transform="matrix(1 0 0 1 -975.9282 811.1088)"><tspan x="0" y="0" style="stroke:#FFFFFF;stroke-miterlimit:10; font-family:'Futura-Medium'; font-size:26px; letter-spacing:1;"> What’s </tspan><tspan x="0" y="28" style="stroke:#FFFFFF;stroke-miterlimit:10; font-family:'Futura-Medium'; font-size:26px; letter-spacing:1;">next?</tspan><tspan x="68.83" y="28" style="font-family:'Futura-Medium'; font-size:26px; letter-spacing:1;"> </tspan></text>
<g>
	<path d="M-905.24,820.49c0.14,0.01,0.28,0.02,0.41,0.02c12.9,0,25.81,0,38.71,0c0.14,0,0.27,0,0.42,0c0,0.49,0,0.96,0,1.45
		c-0.15,0-0.28,0-0.42,0c-12.9,0-25.81,0-38.71,0c-0.14,0-0.28,0.01-0.42,0.02C-905.24,821.49-905.24,820.99-905.24,820.49z"/>
	<path d="M-905.24,838.56c0.11-0.01,0.22-0.02,0.33-0.02c12.95,0,25.91,0,38.86,0c0.11,0,0.22,0,0.35,0c0,0.48,0,0.94,0,1.44
		c-0.13,0-0.27,0-0.4,0c-12.91,0-25.81,0-38.72,0c-0.14,0-0.28,0.01-0.41,0.02C-905.24,839.52-905.24,839.04-905.24,838.56z"/>
	<path d="M-905.24,829.53c3.27,0,6.55,0,9.84,0c0,0.48,0,0.95,0,1.44c-3.28,0-6.56,0-9.84,0
		C-905.24,830.49-905.24,830.01-905.24,829.53z"/>
	<path d="M-889.41,830.95c0-0.48,0-0.94,0-1.41c3.28,0,6.54,0,9.83,0c0,0.46,0,0.93,0,1.41
		C-882.85,830.95-886.12,830.95-889.41,830.95z"/>
	<path d="M-873.6,830.95c0-0.44,0-0.86,0-1.29c0-0.04,0.01-0.08,0.01-0.13c2.63,0,5.24,0,7.88,0c0,0.46,0,0.93,0,1.41
		C-868.32,830.95-870.94,830.95-873.6,830.95z"/>
</g>
<text transform="matrix(1 0 0 1 -1097.9282 650.1088)"><tspan x="0" y="0" style="stroke:#FFFFFF;stroke-miterlimit:10; font-family:'Futura-Medium'; font-size:26px; letter-spacing:1;"> What’s next?</tspan><tspan x="177.81" y="0" style="font-family:'Futura-Medium'; font-size:26px; letter-spacing:1;"> </tspan></text>
<g>
	<path d="M-1140,626.94c0.79,0.01,1.58,0.02,2.37,0.02c73.75,0,147.49,0,221.24,0c0.78,0,1.56,0,2.39,0c0,0.47,0,0.91,0,1.39
		c-0.83,0-1.61,0-2.39,0c-73.75,0-147.49,0-221.24,0c-0.79,0-1.58,0.01-2.38,0.01C-1140,627.89-1140,627.41-1140,626.94z"/>
	<path d="M-1139.16,650.09c0.64-0.01,1.28-0.02,1.92-0.02c75.07,0,150.15,0,225.22,0c0.64,0,1.28,0,2.02,0c0,0.52,0,1.01,0,1.55
		c-0.77,0-1.56,0-2.34,0c-74.81,0-149.61,0-224.42,0c-0.8,0-1.6,0.01-2.4,0.02C-1139.16,651.12-1139.16,650.61-1139.16,650.09z"/>
	<path d="M-1139.16,638.7c4.15,0,8.31,0,12.49,0c0,0.61,0,1.2,0,1.83c-4.16,0-8.32,0-12.49,0
		C-1139.16,639.92-1139.16,639.31-1139.16,638.7z"/>
	<path d="M-1119.08,640.5c0-0.61,0-1.19,0-1.79c4.16,0,8.3,0,12.47,0c0,0.59,0,1.18,0,1.79
		C-1110.75,640.5-1114.9,640.5-1119.08,640.5z"/>
	<path d="M-1099.02,640.5c0-0.56,0-1.09,0-1.63c0-0.05,0.01-0.1,0.01-0.16c3.33,0,6.65,0,9.99,0c0,0.58,0,1.18,0,1.79
		C-1092.33,640.5-1095.65,640.5-1099.02,640.5z"/>
</g>
<g id="Jycyvj.tif">
	<g>
		<path d="M-1011.3,683.35c0,3.02,0,6.03-0.01,9.05c0,0.81-0.08,1.62-0.24,2.41c-0.99,5.16-5.61,9.05-10.86,9.12
			c-2.53,0.03-5.06,0.03-7.59,0.02v1.64c2.36,0,4.72,0,7.08-0.02c5.39-0.03,9.37-2.52,11.89-7.26c0.96-1.79,1.36-3.76,1.36-5.8
			c0-3.05,0-6.11,0-9.16H-1011.3z"/>
		<path d="M-999.87,683.35c0.01,3.04,0.01,6.08-0.02,9.12c-0.08,7.83-3.32,14.09-9.64,18.7c-3.95,2.88-8.45,4.21-13.33,4.21
			c-2.38,0-4.75,0-7.13,0V717c2.33,0,4.67,0,7-0.02c1.56-0.01,3.14-0.11,4.67-0.39c11.68-2.13,20.07-12.25,20.07-24.12
			c0-3.04,0-6.09,0-9.13H-999.87z"/>
		<path d="M-1025.13,711.29c-0.56,0-1.12,0.01-1.69,0c-0.53-0.01-0.86-0.32-0.88-0.78c-0.01-0.46,0.3-0.82,0.82-0.83
			c1.15-0.02,2.3-0.02,3.45,0c0.52,0.01,0.85,0.36,0.84,0.82c-0.01,0.48-0.35,0.79-0.91,0.79
			C-1024.04,711.29-1024.58,711.29-1025.13,711.29z"/>
		<path d="M-1005.59,688.1c0-0.56-0.01-1.13,0-1.69c0.01-0.51,0.33-0.86,0.79-0.87c0.48-0.01,0.84,0.34,0.84,0.87
			c0.01,1.13,0.01,2.25,0,3.38c0,0.5-0.36,0.86-0.82,0.86c-0.46,0-0.81-0.35-0.81-0.85C-1005.6,689.23-1005.59,688.66-1005.59,688.1
			z"/>
		<path d="M-1018.92,709.85c0.04-0.34,0.2-0.61,0.55-0.74c1.08-0.4,2.15-0.81,3.23-1.21c0.42-0.16,0.87,0.03,1.05,0.41
			c0.19,0.41,0.07,0.87-0.4,1.07c-0.87,0.39-1.78,0.72-2.67,1.06c-0.24,0.09-0.49,0.17-0.75,0.22
			C-1018.44,710.78-1018.93,710.39-1018.92,709.85z"/>
		<path d="M-1005.67,699.25c-0.65,0-1.02-0.48-0.88-1.04c0.27-1.1,0.54-2.21,0.8-3.31c0.1-0.43,0.48-0.7,0.92-0.64
			c0.43,0.06,0.78,0.45,0.69,0.87c-0.26,1.2-0.56,2.4-0.87,3.59C-1005.1,699.07-1005.4,699.24-1005.67,699.25z"/>
		<path d="M-1010.56,706.62c-0.25-0.19-0.51-0.34-0.68-0.55c-0.2-0.25-0.14-0.55,0.04-0.8c0.09-0.12,0.2-0.22,0.3-0.34
			c0.65-0.73,1.3-1.45,1.93-2.19c0.38-0.45,0.85-0.58,1.24-0.29c0.41,0.31,0.46,0.79,0.07,1.26c-0.73,0.86-1.48,1.69-2.25,2.51
			C-1010.05,706.38-1010.29,706.45-1010.56,706.62z"/>
	</g>
</g>
<g>
	<path d="M-995.43,718.99l3.6,7.47l3.88-8.66l3.91,8.66l3.55-7.47h3.55l-7.19,14.06l-3.82-8.42l-3.86,8.42l-7.18-14.06H-995.43z"/>
	<path d="M-975.38,709.38h3.17v10.69c1.13-0.97,2.37-1.45,3.74-1.45c1.55,0,2.79,0.48,3.72,1.44c0.79,0.83,1.18,2.16,1.18,3.99v8.02
		h-3.17v-7.74c0-1.05-0.2-1.81-0.59-2.28s-1.02-0.71-1.88-0.71c-1.11,0-1.89,0.33-2.34,0.98c-0.44,0.66-0.66,1.8-0.66,3.41v6.33
		h-3.17V709.38z"/>
	<path d="M-949.99,718.99h3.19v13.08h-3.19v-1.37c-1.31,1.16-2.71,1.75-4.22,1.75c-1.9,0-3.47-0.65-4.71-1.96
		c-1.23-1.33-1.85-3-1.85-5c0-1.96,0.62-3.59,1.85-4.9c1.23-1.31,2.77-1.96,4.63-1.96c1.6,0,3.03,0.63,4.3,1.88V718.99z
		 M-957.52,725.49c0,1.25,0.35,2.27,1.06,3.06c0.72,0.8,1.64,1.2,2.74,1.2c1.18,0,2.12-0.39,2.85-1.16c0.72-0.8,1.09-1.81,1.09-3.03
		s-0.36-2.24-1.09-3.04c-0.72-0.78-1.66-1.17-2.82-1.17c-1.09,0-2,0.39-2.74,1.18C-957.16,723.33-957.52,724.31-957.52,725.49z"/>
	<path d="M-940.1,721.81v10.26h-3.17v-10.26h-1.35v-2.82h1.35v-4.79h3.17v4.79h2.47v2.82H-940.1z"/>
	<path d="M-932.04,710.43l2.82,1.05l-4.02,7.68l-2.14-0.85L-932.04,710.43z"/>
	<path d="M-922.61,721.22l-2.62,1.33c-0.41-0.81-0.93-1.21-1.54-1.21c-0.29,0-0.54,0.09-0.75,0.28c-0.21,0.18-0.31,0.42-0.31,0.71
		c0,0.5,0.61,1,1.83,1.49c1.68,0.69,2.82,1.33,3.4,1.91c0.58,0.58,0.87,1.37,0.87,2.35c0,1.26-0.49,2.32-1.47,3.17
		c-0.95,0.81-2.1,1.21-3.44,1.21c-2.3,0-3.93-1.07-4.89-3.21l2.71-1.2c0.38,0.63,0.66,1.03,0.86,1.2c0.39,0.34,0.85,0.51,1.38,0.51
		c1.07,0,1.61-0.47,1.61-1.4c0-0.54-0.41-1.04-1.24-1.5c-0.32-0.15-0.64-0.3-0.96-0.44c-0.32-0.14-0.64-0.29-0.97-0.44
		c-0.92-0.43-1.57-0.86-1.95-1.29c-0.48-0.55-0.72-1.25-0.72-2.11c0-1.14,0.41-2.08,1.23-2.82c0.84-0.74,1.85-1.11,3.05-1.11
		C-924.78,718.62-923.47,719.49-922.61,721.22z"/>
</g>
<g id="Jycyvj.tif_1_">
	<g>
		<path d="M-872.63,636.05c0,2,0,3.99,0,5.99c0,0.53-0.05,1.07-0.16,1.6c-0.66,3.41-3.71,5.99-7.18,6.03
			c-1.67,0.02-3.34,0.02-5.02,0.01v1.09c1.56,0,3.12,0,4.68-0.01c3.57-0.02,6.19-1.67,7.86-4.8c0.63-1.19,0.9-2.49,0.9-3.84
			c0-2.02,0-4.04,0-6.06H-872.63z"/>
		<path d="M-865.08,636.05c0,2.01,0.01,4.02-0.02,6.03c-0.05,5.18-2.2,9.31-6.37,12.36c-2.61,1.91-5.58,2.78-8.81,2.79
			c-1.57,0-3.14,0-4.72,0v1.07c1.54,0,3.09,0,4.63-0.01c1.03-0.01,2.08-0.07,3.09-0.26c7.72-1.41,13.27-8.1,13.27-15.95
			c0-2.01,0-4.03,0-6.04H-865.08z"/>
		<path d="M-881.78,654.52c-0.37,0-0.74,0-1.11,0c-0.35-0.01-0.57-0.21-0.58-0.52c-0.01-0.31,0.2-0.54,0.54-0.55
			c0.76-0.02,1.52-0.02,2.28,0c0.35,0.01,0.56,0.24,0.56,0.54c-0.01,0.32-0.23,0.52-0.6,0.53
			C-881.05,654.53-881.41,654.52-881.78,654.52z"/>
		<path d="M-868.85,639.19c0-0.37,0-0.75,0-1.12c0-0.34,0.22-0.57,0.52-0.58c0.32-0.01,0.55,0.23,0.56,0.58
			c0.01,0.75,0.01,1.49,0,2.24c0,0.33-0.24,0.57-0.54,0.57c-0.3,0-0.53-0.23-0.54-0.57C-868.86,639.93-868.85,639.56-868.85,639.19z
			"/>
		<path d="M-877.67,653.57c0.02-0.23,0.13-0.4,0.36-0.49c0.71-0.27,1.42-0.54,2.13-0.8c0.28-0.1,0.58,0.02,0.69,0.27
			c0.13,0.27,0.04,0.57-0.26,0.71c-0.58,0.26-1.17,0.48-1.77,0.7c-0.16,0.06-0.33,0.11-0.5,0.15
			C-877.35,654.19-877.68,653.93-877.67,653.57z"/>
		<path d="M-868.91,646.56c-0.43,0-0.67-0.32-0.58-0.69c0.18-0.73,0.35-1.46,0.53-2.19c0.07-0.28,0.32-0.46,0.61-0.42
			c0.28,0.04,0.52,0.29,0.45,0.58c-0.17,0.8-0.37,1.59-0.57,2.37C-868.53,646.45-868.73,646.56-868.91,646.56z"/>
		<path d="M-872.14,651.43c-0.16-0.13-0.34-0.22-0.45-0.36c-0.13-0.16-0.09-0.36,0.03-0.53c0.06-0.08,0.13-0.15,0.2-0.22
			c0.43-0.48,0.86-0.96,1.28-1.45c0.25-0.3,0.56-0.39,0.82-0.19c0.27,0.2,0.31,0.53,0.04,0.83c-0.48,0.57-0.98,1.12-1.49,1.66
			C-871.8,651.28-871.96,651.33-872.14,651.43z"/>
	</g>
</g>
<g id="Jycyvj.tif_2_">
	<g>
		<path d="M-903.79,700.66c-1.72,0-3.44,0-5.16,0c-0.46,0-0.93-0.05-1.38-0.13c-2.95-0.57-5.16-3.2-5.2-6.2
			c-0.02-1.44-0.01-2.88-0.01-4.33h-0.94c0,1.35,0,2.69,0.01,4.04c0.02,3.08,1.44,5.34,4.14,6.78c1.02,0.55,2.15,0.77,3.31,0.77
			c1.74,0,3.48,0,5.23,0V700.66z"/>
		<path d="M-903.79,707.18c-1.73,0-3.47,0-5.2-0.01c-4.47-0.05-8.04-1.89-10.66-5.5c-1.65-2.25-2.4-4.82-2.4-7.6
			c0-1.36,0-2.71,0-4.07h-0.93c0,1.33,0,2.66,0.01,3.99c0,0.89,0.06,1.79,0.22,2.67c1.22,6.66,6.99,11.45,13.76,11.45
			c1.74,0,3.47,0,5.21,0V707.18z"/>
		<path d="M-919.73,692.77c0-0.32,0-0.96,0-0.96l0.92-0.03l-0.01,1.83l-0.91,0.1C-919.73,693.71-919.73,693.08-919.73,692.77z"/>
		<path d="M-906.5,703.92c0.32,0,0.96,0,0.96,0l0,0.93l-1.93,0l0-0.93C-907.47,703.92-906.82,703.92-906.5,703.92z"/>
		<polygon points="-918.49,696.63 -917.8,698.47 -918.65,698.84 -919.38,696.89 		"/>
		<polygon points="-912.27,703.37 -910.38,703.83 -910.52,704.74 -912.56,704.25 		"/>
		<polygon points="-916.29,700.72 -914.85,701.99 -915.41,702.74 -916.84,701.46 		"/>
	</g>
</g>
<text transform="matrix(1.3211 0 0 1 -997.4668 750.2188)" style="font-family:'Futura-CondensedMedium'; font-size:24.1289px;">next?</text>
<text transform="matrix(1 0 0 1 -946.7324 677.2896)" style="font-family:'GillSans-SemiBold'; font-size:12px;">what’s next?</text>
<text transform="matrix(1 0 0 1 -912.9297 697.1787)" style="font-family:'GillSans'; font-size:16.8094px;">what’s</text>
<text transform="matrix(1 0 0 1 -902.9082 707.917)" style="font-family:'GillSans-SemiBold'; font-size:14.1241px;">next?</text>
<g>
	<g id="Jycyvj.tif_4_">
		<g>
			<path d="M355.9,427.74c-10.83,0-21.66,0.01-32.49-0.02c-2.98-0.01-6.01-0.31-8.94-0.87c-19.13-3.68-33.53-20.77-33.77-40.25
				c-0.1-8.62-0.1-17.23-0.07-25.85h-6.07c0.01,7.99,0.01,15.98,0.05,23.97c0.12,19.98,9.35,34.69,26.91,44.05
				c6.64,3.54,13.93,5.03,21.49,5.02c10.97,0,21.93,0,32.9,0c0.57,0,1.04-0.47,1.04-1.04v-3.97
				C356.94,428.21,356.48,427.74,355.9,427.74z"/>
			<path d="M355.9,470.06c-10.91,0.02-21.82,0.02-32.73-0.09c-29-0.3-52.18-12.31-69.26-35.69c-10.68-14.63-15.59-31.28-15.61-49.36
				c-0.01-8.05,0-16.11,0-24.16h-6.01c0.01,7.9,0.01,15.79,0.05,23.69c0.03,5.78,0.41,11.64,1.44,17.31
				c7.9,43.25,45.37,74.33,89.33,74.33c10.93,0,21.86,0,32.79,0c0.57,0,1.04-0.47,1.04-1.04v-3.95
				C356.94,470.52,356.48,470.05,355.9,470.06z"/>
			<path d="M253.45,376.49c0-1.44,0-3.88,0.01-5.24c0-0.56,0.44-1.02,1-1.04l3.89-0.13c0.59-0.02,1.08,0.46,1.08,1.05l-0.08,9.88
				c0,0.53-0.4,0.97-0.93,1.03l-3.81,0.42c-0.61,0.07-1.15-0.41-1.15-1.03C253.45,380.07,253.44,377.84,253.45,376.49z"/>
			<path d="M339.34,448.88c1.43,0,3.85,0,5.23,0c0.57,0,1.04,0.47,1.04,1.04l0,3.98c0,0.57-0.47,1.04-1.04,1.04l-10.44,0
				c-0.57,0-1.04-0.47-1.04-1.04l0-3.97c0-0.57,0.46-1.04,1.03-1.04C335.49,448.89,337.91,448.88,339.34,448.88z"/>
			<path d="M261.83,402.43l3.8,10.13c0.19,0.52-0.05,1.09-0.55,1.32l-3.57,1.58c-0.55,0.24-1.18-0.03-1.39-0.59l-3.98-10.59
				c-0.21-0.56,0.1-1.19,0.68-1.36l3.75-1.12C261.08,401.64,261.64,401.92,261.83,402.43z"/>
			<path d="M302.82,445.54l10.42,2.52c0.52,0.13,0.86,0.63,0.78,1.16l-0.57,3.88c-0.09,0.61-0.68,1-1.27,0.86l-11.09-2.68
				c-0.59-0.14-0.93-0.76-0.74-1.34l1.24-3.72C301.76,445.71,302.29,445.41,302.82,445.54z"/>
			<path d="M276.62,428.85l7.78,6.88c0.4,0.36,0.47,0.97,0.15,1.4l-2.36,3.17c-0.36,0.49-1.07,0.56-1.53,0.15l-7.74-6.93
				c-0.4-0.36-0.46-0.96-0.14-1.39l2.32-3.12C275.46,428.52,276.16,428.45,276.62,428.85z"/>
		</g>
	</g>
	<g>
		<path d="M308.84,360.65l12.06,29.95l12.28-29.95h8.89l12.17,29.95l12.06-29.95h14.23l-23.12,52.91h-5.78l-14-31.73l-14.01,31.73
			h-5.67l-23.34-52.91H308.84z"/>
		<path d="M398.71,334.92v33.01h0.33c4.41-5.52,9.73-8.28,15.95-8.28c5.52,0,9.97,1.82,13.34,5.45c3.37,3.63,5.06,8.37,5.06,14.23
			v33.23h-13.62v-30.62c0-3.48-0.83-6.25-2.47-8.31c-1.65-2.06-3.9-3.08-6.76-3.08c-2.07,0-4.02,0.59-5.86,1.78
			c-1.83,1.19-3.83,3.15-5.98,5.89v34.34h-13.67v-77.64H398.71z"/>
		<path d="M463.01,359.65c6.67,0,11.76,1.42,15.29,4.25s5.28,6.79,5.28,11.86v25.4c0,1.96,0.8,2.95,2.39,2.95
			c0.67,0,1.6-0.29,2.8-0.86c1.2-0.57,2.22-1.23,3.03-1.98v7.89c-4.78,2.93-9.15,4.39-13.11,4.39c-2.45,0-4.33-0.41-5.65-1.22
			c-1.31-0.81-2.23-2.25-2.75-4.33c-5.23,3.7-10.47,5.56-15.73,5.56c-3.74,0-6.96-1.26-9.64-3.78c-2.69-2.52-4.03-5.54-4.03-9.06
			c0-4.49,1.33-8.02,4-10.61c2.67-2.6,7.33-4.86,14-6.78l11.06-3.23v-2.39c0-5.08-3.08-7.61-9.23-7.61c-3.15,0-6.28,0.72-9.39,2.17
			c-3.11,1.45-5.94,3.58-8.5,6.39v-12.28C448.5,361.89,455.23,359.65,463.01,359.65z M454.67,398.66c0,1.89,0.6,3.41,1.8,4.56
			c1.21,1.15,2.7,1.72,4.48,1.72c3,0,6-1.37,9-4.12v-13.67c-3.82,1.3-6.81,2.52-8.97,3.67c-2.17,1.15-3.76,2.32-4.78,3.5
			C455.18,395.52,454.67,396.96,454.67,398.66z"/>
		<path d="M509.93,346.87h1.11v13.78h17.79v10.34h-17.79v23.95c0,2.33,0.7,4.23,2.12,5.67c1.41,1.45,3.33,2.17,5.78,2.17
			c3.19,0,6.86-1.15,11-3.45v10.95c-4.93,2.18-9.56,3.28-13.89,3.28c-5.85,0-10.42-1.59-13.7-4.78c-3.28-3.19-4.91-7.51-4.91-12.95
			v-24.84h-8.12v-2.22L509.93,346.87z"/>
		<path d="M542.6,339.81c2.48,0,4.47,0.92,5.96,2.77c1.49,1.85,2.23,4.29,2.23,7.34c0,4.1-1.38,7.74-4.12,10.92
			c-2.54,2.94-5.6,4.78-9.19,5.5c-0.46,0.09-0.89-0.24-0.89-0.71c0,0,6.87-7.82,4.41-12.32c-0.16-0.29-0.26-0.59-0.57-0.67
			c-2.69-0.65-4.23-2.27-4.62-4.85c-0.37-2.45,0.47-5,2.41-6.53C539.43,340.3,540.89,339.81,542.6,339.81z"/>
		<path d="M569.54,359.65c2.86,0,5.54,0.33,8.06,0.97c2.52,0.65,5.19,1.68,8,3.09v10.95c-2.59-1.67-5.37-3.01-8.34-4.03
			c-2.96-1.02-5.61-1.53-7.94-1.53c-1.96,0-3.5,0.37-4.62,1.11c-1.11,0.74-1.67,1.8-1.67,3.17c0,0.78,0.46,1.55,1.39,2.33
			s3.46,2.2,7.61,4.28c5.93,3,10.09,5.77,12.48,8.31c2.38,2.54,3.58,5.59,3.58,9.14c0,5.01-1.74,8.94-5.22,11.81
			c-3.49,2.87-8.19,4.31-14.12,4.31c-3.7,0-7.16-0.41-10.36-1.22c-3.2-0.81-5.86-1.8-7.97-2.94v-11.39
			c6.67,3.7,12.28,5.56,16.84,5.56c2.33,0,4.23-0.42,5.67-1.25c1.44-0.83,2.17-1.94,2.17-3.31c0-0.81-0.26-1.56-0.78-2.23
			c-0.52-0.67-1.3-1.35-2.33-2.05c-1.04-0.7-4.28-2.39-9.73-5.06c-4.19-2-7.28-4.18-9.28-6.53c-2-2.35-3-5.14-3-8.36
			c0-4.59,1.8-8.26,5.39-11C558.96,361.02,563.69,359.65,569.54,359.65z"/>
	</g>
	<g>
		<path d="M399.3,425.94c5.12,0,9.2,1.68,12.26,5.04c3.05,3.36,4.58,7.79,4.58,13.28v30.4H403.6v-29.13c0-3.1-0.74-5.56-2.23-7.37
			s-3.51-2.71-6.07-2.71c-1.94,0-3.77,0.57-5.47,1.71c-1.71,1.15-3.59,3.04-5.63,5.71v31.79h-12.59v-47.81h12.59v6.7
			c2.32-2.73,4.7-4.68,7.14-5.86C393.78,426.53,396.44,425.94,399.3,425.94z"/>
		<path d="M447.1,425.94c7.02,0,12.59,2.25,16.68,6.76s6.14,10.73,6.14,18.69v1.89h-33.83c0.51,4.27,2.11,7.55,4.79,9.85
			c2.67,2.3,6.35,3.45,11.02,3.45c3.01,0,5.9-0.52,8.68-1.56c2.78-1.04,5.66-2.62,8.62-4.74v9.37c-5.6,3.96-12.39,5.94-20.37,5.94
			c-7.55,0-13.71-2.27-18.48-6.81c-4.78-4.54-7.16-10.58-7.16-18.12c0-7.27,2.2-13.21,6.62-17.81
			C434.24,428.24,440,425.94,447.1,425.94z M458.1,445.65c-0.34-3.48-1.4-6.2-3.17-8.16c-1.78-1.96-4.21-2.94-7.32-2.94
			c-3.17,0-5.73,0.94-7.65,2.82c-1.93,1.87-3.15,4.64-3.66,8.29H458.1z"/>
		<path d="M486.4,426.86l11.92,15l11.47-15h15.1l-19.19,23.49l20.63,24.31h-15.1l-12.9-15.81l-12.34,15.81h-14.69l19.81-24.31
			l-19.81-23.49H486.4z"/>
		<path d="M543.79,414.17h1.02v12.69h16.38v9.52h-16.38v22.06c0,2.15,0.65,3.89,1.94,5.22c1.3,1.33,3.07,2,5.33,2
			c2.93,0,6.31-1.06,10.13-3.17v10.09c-4.54,2.01-8.81,3.02-12.8,3.02c-5.39,0-9.6-1.46-12.61-4.4c-3.02-2.94-4.53-6.91-4.53-11.93
			v-22.88h-7.48v-2.05L543.79,414.17z"/>
		<path d="M576.59,419.62c4.01,0,7.2,1.04,9.57,3.12c2.37,2.08,3.56,4.83,3.56,8.24c0,2.24-0.48,4.53-1.45,6.86
			c-0.96,2.33-2.69,5.19-5.19,8.57c-1.72,2.32-3,4.35-3.84,6.09c-0.85,1.74-1.27,3.4-1.27,4.96c0,0.62-0.15,1.14-0.47,1.54
			c-0.31,0.4-0.71,0.6-1.21,0.6c-1.17,0-2.17-0.86-3-2.58c-0.84-1.72-1.25-3.61-1.25-5.66c0-1.82,0.38-3.68,1.13-5.56
			c0.76-1.89,1.96-4.06,3.59-6.5c1.83-2.71,2.74-5.06,2.74-7.07c0-1.43-0.44-2.56-1.31-3.38c-0.87-0.82-2.09-1.23-3.65-1.23
			c-1.85,0-3.63,0.69-5.35,2.07h-0.51l1.05-5.97c0.32-1.81,1.7-3.26,3.5-3.63c0.02,0,0.03-0.01,0.05-0.01
			C574.78,419.78,575.89,419.62,576.59,419.62z M577.14,463.6c1.56,0,2.95,0.61,4.18,1.84c1.23,1.23,1.84,2.62,1.84,4.18
			c0,1.54-0.59,2.92-1.78,4.14s-2.6,1.84-4.24,1.84c-1.64,0-3.05-0.59-4.22-1.78c-1.17-1.19-1.76-2.58-1.76-4.2
			c0-1.59,0.61-2.99,1.82-4.2C574.19,464.21,575.57,463.6,577.14,463.6z"/>
	</g>
</g>
</svg>
